<svg id="visual" viewBox="0 0 960 540" width="960" height="540" xmlns="http://www.w3.org/2000/svg" xmlns:xlink="http://www.w3.org/1999/xlink" version="1.1"><path d="M0 120L53.3 109.2C106.7 98.3 213.3 76.7 320 74.8C426.7 73 533.3 91 640 85.7C746.7 80.3 853.3 51.7 906.7 37.3L960 23L960 0L906.7 0C853.3 0 746.7 0 640 0C533.3 0 426.7 0 320 0C213.3 0 106.7 0 53.3 0L0 0Z" fill="#bcd7ff"></path><path d="M0 249L53.3 221.2C106.7 193.3 213.3 137.7 320 138.7C426.7 139.7 533.3 197.3 640 204.5C746.7 211.7 853.3 168.3 906.7 146.7L960 125L960 21L906.7 35.3C853.3 49.7 746.7 78.3 640 83.7C533.3 89 426.7 71 320 72.8C213.3 74.7 106.7 96.3 53.3 107.2L0 118Z" fill="#90b1e9"></path><path d="M0 449L53.3 403.2C106.7 357.3 213.3 265.7 320 251.3C426.7 237 533.3 300 640 339.5C746.7 379 853.3 395 906.7 403L960 411L960 123L906.7 144.7C853.3 166.3 746.7 209.7 640 202.5C533.3 195.3 426.7 137.7 320 136.7C213.3 135.7 106.7 191.3 53.3 219.2L0 247Z" fill="#678cd3"></path><path d="M0 509L53.3 498.2C106.7 487.3 213.3 465.7 320 461.2C426.7 456.7 533.3 469.3 640 478.3C746.7 487.3 853.3 492.7 906.7 495.3L960 498L960 409L906.7 401C853.3 393 746.7 377 640 337.5C533.3 298 426.7 235 320 249.3C213.3 263.7 106.7 355.3 53.3 401.2L0 447Z" fill="#3e67bc"></path><path d="M0 541L53.3 541C106.7 541 213.3 541 320 541C426.7 541 533.3 541 640 541C746.7 541 853.3 541 906.7 541L960 541L960 496L906.7 493.3C853.3 490.7 746.7 485.3 640 476.3C533.3 467.3 426.7 454.7 320 459.2C213.3 463.7 106.7 485.3 53.3 496.2L0 507Z" fill="#0044a3"></path></svg>